<?xml version="1.0" encoding="UTF-8"?>
<svg id="_Слой_2" data-name="Слой 2" xmlns="http://www.w3.org/2000/svg" viewBox="0 0 90.54 127.94">
  <defs>
    <style>
      .cls-1 {
        stroke-width: 0px;
      }
    </style>
  </defs>
  <g id="_Слой_10" data-name="Слой 10">
    <g>
      <path class="cls-1" d="M67.34,67.44s-.03.05-.07.07c-1.42,1.73-2.96,3.29-4.62,4.67-2.14,1.86-4.47,3.4-6.97,4.65-.34.2-.71.37-1.07.54-1.23.56-2.5,1.07-3.79,1.49-3.88,1.3-8.1,1.93-12.62,1.93-.39,0-.76,0-1.15-.04-1.66-.03-3.28-.16-4.87-.4-3.17-.45-6.22-1.3-9.11-2.51-4.65-1.98-8.67-4.66-12.08-8.06-3.39-3.39-6.08-7.41-8.04-12.07-1.98-4.65-2.95-9.66-2.95-15.03s.97-10.38,2.95-15.03c1.92-4.55,4.53-8.5,7.82-11.85V1.98c0-1.52,1.65-2.48,2.97-1.71l11.26,6.5c4.11-1.47,8.51-2.21,13.2-2.21,3.72,0,7.16.41,10.32,1.25L58.11.27c1.32-.77,2.97.19,2.97,1.71v10.28c1.56,1.26,3.04,2.67,4.43,4.23l-9.68,9.38c-2.18-2.52-4.67-4.53-7.5-6.02-2.82-1.49-6.16-2.24-10.03-2.24-3.39,0-6.59.59-9.57,1.79-3,1.18-5.59,2.87-7.8,5.04-2.2,2.17-3.96,4.8-5.25,7.9-1.28,3.09-1.93,6.53-1.93,10.34s.65,7.25,1.93,10.33c1.29,3.1,3.05,5.72,5.25,7.9,2.21,2.19,4.8,3.86,7.8,5.06,1.12.43,2.27.81,3.45,1.08,1.58.36,3.2.59,4.87.65.42.02.83.03,1.25.03,4.08,0,7.7-.82,10.86-2.49,3.15-1.66,5.95-4.02,8.4-7.07l9.78,9.27Z"/>
      <path class="cls-1" d="M87.14,96.92c-2.29-2.88-5.29-5.01-9.02-6.37v-.81c2.78-1.36,5.11-3.36,6.97-5.97,1.87-2.61,2.81-5.85,2.81-9.73,0-2.64-.58-5.12-1.74-7.44-1.15-2.3-2.74-4.33-4.73-6.07-2.01-1.73-4.36-3.08-7.09-4.07-2.7-.98-5.64-1.47-8.75-1.47h-4.32l9.43,8.92,3.29,3.13-2.19,2.64c.08.05.14.11.21.18,1.69,1.7,2.54,3.74,2.54,6.11s-.87,4.44-2.61,6.16c-1.71,1.74-4.18,2.61-7.37,2.61h-13.75v-.81c-3.94,1.15-8.16,1.72-12.62,1.72-.39,0-.78,0-1.15-.03v42.32h29.56c3.32,0,6.42-.47,9.32-1.43,2.89-.94,5.42-2.3,7.59-4.07,2.17-1.76,3.89-3.89,5.14-6.37,1.27-2.48,1.88-5.28,1.88-8.4,0-4.28-1.13-7.86-3.4-10.75ZM74.04,112.72c-1.84,1.73-4.48,2.59-7.95,2.59h-15.27v-18.75h14.87c3.66,0,6.43.9,8.3,2.7,1.86,1.8,2.8,4.07,2.8,6.77s-.92,4.95-2.75,6.69ZM37.05,54.99v7.85c.4.01.83.03,1.25.03,3.31,0,6.11-.63,8.59-1.93,2.55-1.35,4.85-3.29,6.88-5.82l.09-.13h-16.81Z"/>
    </g>
  </g>
</svg>